<svg width="31" height="32" viewBox="0 0 31 32" fill="none" xmlns="http://www.w3.org/2000/svg">
<rect x="0.323181" y="0.697266" width="30.5657" height="30.5657" rx="2.14141" fill="#EDEFF6"/>
<path d="M15.6061 23.5425C15.6061 23.5425 7.01233 18.73 7.01233 12.8862C7.01233 11.8532 7.37025 10.852 8.02521 10.0531C8.68016 9.25419 9.59168 8.70687 10.6047 8.50427C11.6177 8.30167 12.6696 8.4563 13.5814 8.94185C14.4933 9.42741 15.2087 10.2139 15.6061 11.1675V11.1675C16.0034 10.2139 16.7189 9.42741 17.6307 8.94185C18.5426 8.4563 19.5945 8.30167 20.6075 8.50427C21.6205 8.70687 22.532 9.25419 23.187 10.0531C23.8419 10.852 24.1998 11.8532 24.1998 12.8862C24.1998 18.73 15.6061 23.5425 15.6061 23.5425Z" stroke="#4A60A1" stroke-width="1.38209" stroke-linecap="round" stroke-linejoin="round"/>
</svg>
