<svg width="32" height="32" viewBox="0 0 32 32" fill="none" xmlns="http://www.w3.org/2000/svg">
<rect x="0.909058" y="0.697266" width="30.5657" height="30.5657" rx="2.14141" fill="#EDEFF6"/>
<path d="M10.6919 18.73C12.2107 18.73 13.4419 17.4988 13.4419 15.98C13.4419 14.4612 12.2107 13.23 10.6919 13.23C9.17311 13.23 7.94189 14.4612 7.94189 15.98C7.94189 17.4988 9.17311 18.73 10.6919 18.73Z" stroke="#4A60A1" stroke-width="1.38209" stroke-linecap="round" stroke-linejoin="round"/>
<path d="M20.3169 24.9175C21.8357 24.9175 23.0669 23.6863 23.0669 22.1675C23.0669 20.6487 21.8357 19.4175 20.3169 19.4175C18.7981 19.4175 17.5669 20.6487 17.5669 22.1675C17.5669 23.6863 18.7981 24.9175 20.3169 24.9175Z" stroke="#4A60A1" stroke-width="1.38209" stroke-linecap="round" stroke-linejoin="round"/>
<path d="M20.3169 12.5425C21.8357 12.5425 23.0669 11.3113 23.0669 9.79248C23.0669 8.2737 21.8357 7.04248 20.3169 7.04248C18.7981 7.04248 17.5669 8.2737 17.5669 9.79248C17.5669 11.3113 18.7981 12.5425 20.3169 12.5425Z" stroke="#4A60A1" stroke-width="1.38209" stroke-linecap="round" stroke-linejoin="round"/>
<path d="M18.0052 11.2793L13.0037 14.4934" stroke="#4A60A1" stroke-width="1.38209" stroke-linecap="round" stroke-linejoin="round"/>
<path d="M13.0037 17.4666L18.0052 20.6806" stroke="#4A60A1" stroke-width="1.38209" stroke-linecap="round" stroke-linejoin="round"/>
</svg>
